<svg xmlns="http://www.w3.org/2000/svg" xmlns:xlink="http://www.w3.org/1999/xlink" width="40" zoomAndPan="magnify" viewBox="0 0 30 30.000001" height="40" preserveAspectRatio="xMidYMid meet" version="1.0"><defs><clipPath id="300f19093a"><path d="M 16.636719 9.910156 L 27.648438 9.910156 L 27.648438 20.921875 L 16.636719 20.921875 Z M 16.636719 9.910156 " clip-rule="nonzero"/></clipPath><clipPath id="47c3c9d7ec"><path d="M 22.140625 9.910156 C 19.101562 9.910156 16.636719 12.375 16.636719 15.417969 C 16.636719 18.457031 19.101562 20.921875 22.140625 20.921875 C 25.183594 20.921875 27.648438 18.457031 27.648438 15.417969 C 27.648438 12.375 25.183594 9.910156 22.140625 9.910156 Z M 22.140625 9.910156 " clip-rule="nonzero"/></clipPath><clipPath id="3ca85b38fd"><path d="M 0.636719 0.910156 L 11.648438 0.910156 L 11.648438 11.921875 L 0.636719 11.921875 Z M 0.636719 0.910156 " clip-rule="nonzero"/></clipPath><clipPath id="087cbf9e02"><path d="M 6.140625 0.910156 C 3.101562 0.910156 0.636719 3.375 0.636719 6.417969 C 0.636719 9.457031 3.101562 11.921875 6.140625 11.921875 C 9.183594 11.921875 11.648438 9.457031 11.648438 6.417969 C 11.648438 3.375 9.183594 0.910156 6.140625 0.910156 Z M 6.140625 0.910156 " clip-rule="nonzero"/></clipPath><clipPath id="c9a9c40658"><rect x="0" width="12" y="0" height="12"/></clipPath><clipPath id="d8345285cc"><path d="M 0.484375 0 L 29.515625 0 L 29.515625 29.03125 L 0.484375 29.03125 Z M 0.484375 0 " clip-rule="nonzero"/></clipPath><clipPath id="9cb4cbfc16"><path d="M 11.734375 14.011719 L 22.746094 14.011719 L 22.746094 25.027344 L 11.734375 25.027344 Z M 11.734375 14.011719 " clip-rule="nonzero"/></clipPath><clipPath id="e406606f8b"><path d="M 17.242188 14.011719 C 14.199219 14.011719 11.734375 16.476562 11.734375 19.519531 C 11.734375 22.558594 14.199219 25.027344 17.242188 25.027344 C 20.28125 25.027344 22.746094 22.558594 22.746094 19.519531 C 22.746094 16.476562 20.28125 14.011719 17.242188 14.011719 Z M 17.242188 14.011719 " clip-rule="nonzero"/></clipPath><clipPath id="61e8cae711"><path d="M 0.734375 0.0117188 L 11.746094 0.0117188 L 11.746094 11.027344 L 0.734375 11.027344 Z M 0.734375 0.0117188 " clip-rule="nonzero"/></clipPath><clipPath id="c7402ae5b9"><path d="M 6.242188 0.0117188 C 3.199219 0.0117188 0.734375 2.476562 0.734375 5.519531 C 0.734375 8.558594 3.199219 11.027344 6.242188 11.027344 C 9.28125 11.027344 11.746094 8.558594 11.746094 5.519531 C 11.746094 2.476562 9.28125 0.0117188 6.242188 0.0117188 Z M 6.242188 0.0117188 " clip-rule="nonzero"/></clipPath><clipPath id="02db64d69b"><rect x="0" width="12" y="0" height="12"/></clipPath><clipPath id="42f56d4c16"><path d="M 7.789062 19.140625 L 20.726562 19.140625 L 20.726562 28.046875 L 7.789062 28.046875 Z M 7.789062 19.140625 " clip-rule="nonzero"/></clipPath><clipPath id="ce3edd0701"><path d="M 14.253906 19.140625 C 10.683594 19.140625 7.789062 21.136719 7.789062 23.59375 C 7.789062 26.050781 10.683594 28.046875 14.253906 28.046875 C 17.824219 28.046875 20.71875 26.050781 20.71875 23.59375 C 20.71875 21.136719 17.824219 19.140625 14.253906 19.140625 Z M 14.253906 19.140625 " clip-rule="nonzero"/></clipPath><clipPath id="59ae75e502"><path d="M 0.789062 0.140625 L 13.726562 0.140625 L 13.726562 9.046875 L 0.789062 9.046875 Z M 0.789062 0.140625 " clip-rule="nonzero"/></clipPath><clipPath id="f710805f6f"><path d="M 7.253906 0.140625 C 3.683594 0.140625 0.789062 2.136719 0.789062 4.59375 C 0.789062 7.050781 3.683594 9.046875 7.253906 9.046875 C 10.824219 9.046875 13.71875 7.050781 13.71875 4.59375 C 13.71875 2.136719 10.824219 0.140625 7.253906 0.140625 Z M 7.253906 0.140625 " clip-rule="nonzero"/></clipPath><clipPath id="f248b59a4f"><rect x="0" width="14" y="0" height="10"/></clipPath><clipPath id="23cfa95da8"><path d="M 14 16 L 29 16 L 29 29.03125 L 14 29.03125 Z M 14 16 " clip-rule="nonzero"/></clipPath><clipPath id="d5131ce4ba"><path d="M 11 15 L 29.515625 15 L 29.515625 29.03125 L 11 29.03125 Z M 11 15 " clip-rule="nonzero"/></clipPath><clipPath id="e3ef31dbfc"><path d="M 1 0 L 29 0 L 29 29 L 1 29 Z M 1 0 " clip-rule="nonzero"/></clipPath><clipPath id="3d6de4f80a"><path d="M -2.125 26.757812 L 2.753906 -2.597656 L 32.109375 2.28125 L 27.230469 31.636719 Z M -2.125 26.757812 " clip-rule="nonzero"/></clipPath><clipPath id="17332fa49a"><path d="M -2.125 26.757812 L 2.753906 -2.597656 L 32.109375 2.28125 L 27.230469 31.636719 Z M -2.125 26.757812 " clip-rule="nonzero"/></clipPath><clipPath id="19e44f01d6"><path d="M 3.386719 12 L 5 12 L 5 15 L 3.386719 15 Z M 3.386719 12 " clip-rule="nonzero"/></clipPath><clipPath id="8f2a9371ac"><path d="M 4 10.488281 L 6 10.488281 L 6 15 L 4 15 Z M 4 10.488281 " clip-rule="nonzero"/></clipPath><clipPath id="6da9e9b66a"><path d="M 9 10.488281 L 11 10.488281 L 11 15 L 9 15 Z M 9 10.488281 " clip-rule="nonzero"/></clipPath><clipPath id="91ce31ecad"><path d="M 11 13 L 12.824219 13 L 12.824219 15 L 11 15 Z M 11 13 " clip-rule="nonzero"/></clipPath><clipPath id="460006c760"><path d="M 5 14 L 7 14 L 7 18.472656 L 5 18.472656 Z M 5 14 " clip-rule="nonzero"/></clipPath><clipPath id="dec5cdfb3e"><path d="M 10 14 L 12 14 L 12 18.472656 L 10 18.472656 Z M 10 14 " clip-rule="nonzero"/></clipPath><clipPath id="d8ffc9935f"><path d="M 12 14 L 12.824219 14 L 12.824219 16 L 12 16 Z M 12 14 " clip-rule="nonzero"/></clipPath><clipPath id="b21dc3b0a5"><path d="M 11 14 L 12.824219 14 L 12.824219 16 L 11 16 Z M 11 14 " clip-rule="nonzero"/></clipPath></defs><g clip-path="url(#300f19093a)"><g clip-path="url(#47c3c9d7ec)"><g transform="matrix(1, 0, 0, 1, 16, 9)"><g clip-path="url(#c9a9c40658)"><g clip-path="url(#3ca85b38fd)"><g clip-path="url(#087cbf9e02)"><path fill="#ffffff" d="M 0.636719 0.910156 L 11.648438 0.910156 L 11.648438 11.921875 L 0.636719 11.921875 Z M 0.636719 0.910156 " fill-opacity="1" fill-rule="nonzero"/></g></g></g></g></g></g><g clip-path="url(#d8345285cc)"><path stroke-linecap="butt" transform="matrix(-0.575632, 0.44209, -0.44209, -0.575632, 27.839927, 21.626667)" fill="none" stroke-linejoin="miter" d="M 2.888393 7.778956 C 6.329957 6.072263 9.764957 6.070606 13.20193 7.780542 " stroke="#ffffff" stroke-width="13" stroke-opacity="1" stroke-miterlimit="4"/></g><g clip-path="url(#9cb4cbfc16)"><g clip-path="url(#e406606f8b)"><g transform="matrix(1, 0, 0, 1, 11, 14)"><g clip-path="url(#02db64d69b)"><g clip-path="url(#61e8cae711)"><g clip-path="url(#c7402ae5b9)"><path fill="#ffffff" d="M 0.734375 0.0117188 L 11.746094 0.0117188 L 11.746094 11.027344 L 0.734375 11.027344 Z M 0.734375 0.0117188 " fill-opacity="1" fill-rule="nonzero"/></g></g></g></g></g></g><g clip-path="url(#42f56d4c16)"><g clip-path="url(#ce3edd0701)"><g transform="matrix(1, 0, 0, 1, 7, 19)"><g clip-path="url(#f248b59a4f)"><g clip-path="url(#59ae75e502)"><g clip-path="url(#f710805f6f)"><path fill="#ffffff" d="M 0.789062 0.140625 L 13.726562 0.140625 L 13.726562 9.046875 L 0.789062 9.046875 Z M 0.789062 0.140625 " fill-opacity="1" fill-rule="nonzero"/></g></g></g></g></g></g><path stroke-linecap="butt" transform="matrix(-0.575632, 0.44209, -0.44209, -0.575632, 14.970627, 18.20131)" fill="none" stroke-linejoin="miter" d="M 0.222175 1.782553 C 3.659472 0.0725821 7.09874 0.0742035 10.531444 1.780861 " stroke="#ffffff" stroke-width="1" stroke-opacity="1" stroke-miterlimit="4"/><g clip-path="url(#23cfa95da8)"><path stroke-linecap="butt" transform="matrix(-0.575632, 0.44209, -0.44209, -0.575632, 25.376565, 21.703908)" fill="none" stroke-linejoin="miter" d="M 0.222933 1.780861 C 3.660229 0.07089 7.099498 0.0725113 10.532202 1.779169 " stroke="#ffffff" stroke-width="1" stroke-opacity="1" stroke-miterlimit="4"/></g><g clip-path="url(#d5131ce4ba)"><path stroke-linecap="butt" transform="matrix(-0.599007, 0.409861, -0.409861, -0.599007, 28.752481, 21.955686)" fill="none" stroke-linejoin="miter" d="M 0.281067 3.62675 C 6.526482 -0.544893 12.908119 -0.541047 19.427616 3.626364 " stroke="#ffffff" stroke-width="1" stroke-opacity="1" stroke-miterlimit="4"/></g><g clip-path="url(#e3ef31dbfc)"><g clip-path="url(#3d6de4f80a)"><g clip-path="url(#17332fa49a)"><path fill="#ff5757" d="M 7.128906 3.503906 C 1.015625 7.875 -0.398438 16.371094 3.972656 22.484375 C 7.761719 27.785156 14.648438 29.546875 20.398438 27.074219 C 19.261719 27.359375 18.066406 27.300781 16.96875 26.878906 C 16.96875 26.878906 16.929688 26.542969 16.953125 26.015625 C 15.230469 25.949219 12.730469 25.839844 12.679688 25.765625 C 12.597656 25.652344 12.050781 21.921875 12.050781 21.921875 L 8.34375 21.652344 L 12.445312 21.351562 L 13.289062 25.097656 L 17.054688 25.109375 C 17.21875 24.128906 17.617188 22.878906 18.558594 21.734375 C 18.558594 21.734375 17.917969 21.464844 17.675781 20.832031 C 17.160156 20.785156 16.691406 20.667969 16.21875 20.492188 C 15.597656 20.253906 15.019531 19.90625 14.546875 19.449219 C 14.082031 18.992188 13.683594 18.476562 13.433594 17.894531 C 13.277344 17.621094 13.207031 17.308594 13.09375 17.019531 C 13.007812 16.722656 12.953125 16.414062 12.878906 16.117188 C 12.996094 16.402344 13.097656 16.695312 13.222656 16.96875 C 13.378906 17.234375 13.488281 17.519531 13.675781 17.757812 C 13.996094 18.269531 14.4375 18.679688 14.898438 19.015625 C 15.371094 19.351562 15.910156 19.570312 16.460938 19.6875 C 16.855469 19.777344 17.285156 19.808594 17.675781 19.789062 C 17.757812 19.519531 17.894531 19.226562 18.128906 18.894531 C 18.519531 18.78125 18.84375 18.742188 19.121094 18.753906 C 19.265625 18.390625 19.375 17.972656 19.421875 17.574219 C 19.484375 17.015625 19.457031 16.433594 19.292969 15.878906 C 19.121094 15.328125 18.875 14.777344 18.496094 14.3125 C 18.332031 14.058594 18.097656 13.863281 17.894531 13.628906 C 17.675781 13.421875 17.433594 13.230469 17.199219 13.03125 C 17.460938 13.195312 17.730469 13.347656 17.984375 13.523438 C 18.21875 13.722656 18.496094 13.890625 18.703125 14.128906 C 19.171875 14.554688 19.53125 15.097656 19.816406 15.683594 C 20.09375 16.277344 20.234375 16.941406 20.257812 17.605469 C 20.273438 18.109375 20.230469 18.589844 20.109375 19.09375 C 20.628906 19.527344 20.679688 20.21875 20.679688 20.21875 C 22.066406 19.699219 23.375 19.726562 24.359375 19.886719 L 25.566406 16.324219 L 22.296875 14.3125 L 23.902344 10.527344 L 22.960938 14.121094 C 22.960938 14.121094 26.3125 15.847656 26.394531 15.960938 C 26.449219 16.035156 25.742188 18.433594 25.25 20.089844 C 25.757812 20.234375 26.0625 20.378906 26.0625 20.378906 C 26.101562 21.550781 25.773438 22.703125 25.136719 23.6875 C 29.335938 19.046875 29.898438 11.960938 26.109375 6.660156 C 21.738281 0.546875 13.242188 -0.867188 7.128906 3.503906 " fill-opacity="1" fill-rule="nonzero"/></g></g></g><g clip-path="url(#19e44f01d6)"><path stroke-linecap="butt" transform="matrix(0.000939975, 0, 0, 0.000939975, 3.393672, 9.812973)" fill-opacity="1" fill="#ffffff" fill-rule="evenodd" stroke-linejoin="miter" d="M 416.484244 2900.173476 C 645.047623 2900.173476 832.054024 3091.335574 832.054024 3319.898954 L 832.054024 4998.800867 L 0.914463 4998.800867 L 0.914463 3319.898954 C 0.914463 3091.335574 187.920865 2900.173476 416.484244 2900.173476 Z M 416.484244 2900.173476 " stroke="#000000" stroke-width="6.94" stroke-opacity="1" stroke-miterlimit="2.613"/></g><g clip-path="url(#8f2a9371ac)"><path stroke-linecap="butt" transform="matrix(0.000939975, 0, 0, 0.000939975, 3.393672, 9.812973)" fill-opacity="1" fill="#ffffff" fill-rule="evenodd" stroke-linejoin="miter" d="M 2082.919063 1225.42726 C 2311.482442 1225.42726 2498.488844 1412.433662 2498.488844 1640.997041 L 2498.488844 4998.800867 L 1667.349283 4998.800867 L 1667.349283 1640.997041 C 1667.349283 1412.433662 1854.355684 1225.42726 2082.919063 1225.42726 Z M 2082.919063 1225.42726 " stroke="#000000" stroke-width="6.94" stroke-opacity="1" stroke-miterlimit="2.613"/></g><path stroke-linecap="butt" transform="matrix(0.000939975, 0, 0, 0.000939975, 3.393672, 9.812973)" fill-opacity="1" fill="#ffffff" fill-rule="evenodd" stroke-linejoin="miter" d="M 3749.353883 3137.04825 C 3977.917262 3137.04825 4164.923663 3324.054652 4164.923663 3552.618031 L 4164.923663 4998.800867 L 3333.784102 4998.800867 L 3333.784102 3552.618031 C 3333.784102 3324.054652 3520.790503 3137.04825 3749.353883 3137.04825 Z M 3749.353883 3137.04825 " stroke="#000000" stroke-width="6.94" stroke-opacity="1" stroke-miterlimit="2.613"/><path stroke-linecap="butt" transform="matrix(0.000939975, 0, 0, 0.000939975, 3.393672, 9.812973)" fill-opacity="1" fill="#ffffff" fill-rule="evenodd" stroke-linejoin="miter" d="M 5415.788702 1952.674376 C 5644.352081 1952.674376 5831.358483 2139.680777 5831.358483 2368.244157 L 5831.358483 4998.800867 L 5000.218922 4998.800867 L 5000.218922 2368.244157 C 5000.218922 2139.680777 5187.225323 1952.674376 5415.788702 1952.674376 Z M 5415.788702 1952.674376 " stroke="#000000" stroke-width="6.94" stroke-opacity="1" stroke-miterlimit="2.613"/><g clip-path="url(#6da9e9b66a)"><path stroke-linecap="butt" transform="matrix(0.000939975, 0, 0, 0.000939975, 3.393672, 9.812973)" fill-opacity="1" fill="#ffffff" fill-rule="evenodd" stroke-linejoin="miter" d="M 7082.223522 718.432128 C 7310.786901 718.432128 7501.949 909.594227 7501.949 1138.157607 L 7501.949 4998.800867 L 6666.653741 4998.800867 L 6666.653741 1138.157607 C 6666.653741 909.594227 6853.660142 718.432128 7082.223522 718.432128 Z M 7082.223522 718.432128 " stroke="#000000" stroke-width="6.94" stroke-opacity="1" stroke-miterlimit="2.613"/></g><g clip-path="url(#91ce31ecad)"><path stroke-linecap="butt" transform="matrix(0.000939975, 0, 0, 0.000939975, 3.393672, 9.812973)" fill-opacity="1" fill="#ffffff" fill-rule="evenodd" stroke-linejoin="miter" d="M 8748.658341 3988.9663 C 8977.22172 3988.9663 9168.383819 4175.972701 9168.383819 4404.536081 L 9168.383819 4998.800867 L 8333.088561 4998.800867 L 8333.088561 4404.536081 C 8333.088561 4175.972701 8520.094962 3988.9663 8748.658341 3988.9663 Z M 8748.658341 3988.9663 " stroke="#000000" stroke-width="6.94" stroke-opacity="1" stroke-miterlimit="2.613"/></g><path stroke-linecap="butt" transform="matrix(0.000939975, 0, 0, 0.000939975, 3.393672, 9.812973)" fill-opacity="1" fill="#ffffff" fill-rule="evenodd" stroke-linejoin="miter" d="M 1251.779502 7097.428258 C 1480.342882 7097.428258 1667.349283 6910.421856 1667.349283 6681.858477 L 1667.349283 4998.800867 L 832.054024 4998.800867 L 832.054024 6681.858477 C 832.054024 6910.421856 1019.060425 7097.428258 1251.779502 7097.428258 Z M 1251.779502 7097.428258 " stroke="#000000" stroke-width="6.94" stroke-opacity="1" stroke-miterlimit="2.613"/><g clip-path="url(#460006c760)"><path stroke-linecap="butt" transform="matrix(0.000939975, 0, 0, 0.000939975, 3.393672, 9.812973)" fill-opacity="1" fill="#ffffff" fill-rule="evenodd" stroke-linejoin="miter" d="M 2918.214322 8776.33017 C 3146.777701 8776.33017 3333.784102 8589.323769 3333.784102 8360.76039 L 3333.784102 4998.800867 L 2498.488844 4998.800867 L 2498.488844 8360.76039 C 2498.488844 8589.323769 2685.495245 8776.33017 2918.214322 8776.33017 Z M 2918.214322 8776.33017 " stroke="#000000" stroke-width="6.94" stroke-opacity="1" stroke-miterlimit="2.613"/></g><path stroke-linecap="butt" transform="matrix(0.000939975, 0, 0, 0.000939975, 3.393672, 9.812973)" fill-opacity="1" fill="#ffffff" fill-rule="evenodd" stroke-linejoin="miter" d="M 4584.649141 6864.709181 C 4813.212521 6864.709181 5000.218922 6673.547082 5000.218922 6444.983702 L 5000.218922 4998.800867 L 4164.923663 4998.800867 L 4164.923663 6444.983702 C 4164.923663 6673.547082 4356.085762 6864.709181 4584.649141 6864.709181 Z M 4584.649141 6864.709181 " stroke="#000000" stroke-width="6.94" stroke-opacity="1" stroke-miterlimit="2.613"/><path stroke-linecap="butt" transform="matrix(0.000939975, 0, 0, 0.000939975, 3.393672, 9.812973)" fill-opacity="1" fill="#ffffff" fill-rule="evenodd" stroke-linejoin="miter" d="M 6251.083961 8044.927357 C 6479.64734 8044.927357 6666.653741 7857.920956 6666.653741 7629.357577 L 6666.653741 4998.800867 L 5831.358483 4998.800867 L 5831.358483 7629.357577 C 5831.358483 7857.920956 6022.520582 8044.927357 6251.083961 8044.927357 Z M 6251.083961 8044.927357 " stroke="#000000" stroke-width="6.94" stroke-opacity="1" stroke-miterlimit="2.613"/><g clip-path="url(#dec5cdfb3e)"><path stroke-linecap="butt" transform="matrix(0.000939975, 0, 0, 0.000939975, 3.393672, 9.812973)" fill-opacity="1" fill="#ffffff" fill-rule="evenodd" stroke-linejoin="miter" d="M 7917.51878 9279.169605 C 8146.082159 9279.169605 8333.088561 9092.163204 8333.088561 8863.599824 L 8333.088561 4998.800867 L 7501.949 4998.800867 L 7501.949 8863.599824 C 7501.949 9092.163204 7688.955401 9279.169605 7917.51878 9279.169605 Z M 7917.51878 9279.169605 " stroke="#000000" stroke-width="6.94" stroke-opacity="1" stroke-miterlimit="2.613"/></g><g clip-path="url(#d8ffc9935f)"><path fill="#ffffff" d="M 12.402344 15.464844 C 12.617188 15.464844 12.792969 15.289062 12.792969 15.074219 L 12.792969 14.511719 L 12.011719 14.511719 L 12.011719 15.074219 C 12.011719 15.289062 12.1875 15.464844 12.402344 15.464844 Z M 12.402344 15.464844 " fill-opacity="1" fill-rule="evenodd"/></g><g clip-path="url(#b21dc3b0a5)"><path stroke-linecap="butt" transform="matrix(0.000939975, 0, 0, 0.000939975, 3.393672, 9.812973)" fill="none" stroke-linejoin="miter" d="M 9583.9536 6012.791131 C 9812.516979 6012.791131 9999.52338 5825.78473 9999.52338 5597.22135 L 9999.52338 4998.800867 L 9168.383819 4998.800867 L 9168.383819 5597.22135 C 9168.383819 5825.78473 9355.39022 6012.791131 9583.9536 6012.791131 Z M 9583.9536 6012.791131 " stroke="#000000" stroke-width="6.94" stroke-opacity="1" stroke-miterlimit="2.613"/></g></svg>