<svg xmlns="http://www.w3.org/2000/svg" xmlns:xlink="http://www.w3.org/1999/xlink" width="300" zoomAndPan="magnify" viewBox="0 0 224.87999 225" height="300" preserveAspectRatio="xMidYMid meet" version="1.0"><defs><clipPath id="5e8498a560"><path d="M 125.105469 76.839844 L 210.367188 76.839844 L 210.367188 162.097656 L 125.105469 162.097656 Z M 125.105469 76.839844 " clip-rule="nonzero"/></clipPath><clipPath id="4bdcf45cb2"><path d="M 167.734375 76.839844 C 144.191406 76.839844 125.105469 95.921875 125.105469 119.46875 C 125.105469 143.011719 144.191406 162.097656 167.734375 162.097656 C 191.277344 162.097656 210.367188 143.011719 210.367188 119.46875 C 210.367188 95.921875 191.277344 76.839844 167.734375 76.839844 Z M 167.734375 76.839844 " clip-rule="nonzero"/></clipPath><clipPath id="caeec6ffed"><path d="M 167.734375 76.839844 C 144.191406 76.839844 125.105469 95.921875 125.105469 119.46875 C 125.105469 143.011719 144.191406 162.097656 167.734375 162.097656 C 191.277344 162.097656 210.367188 143.011719 210.367188 119.46875 C 210.367188 95.921875 191.277344 76.839844 167.734375 76.839844 Z M 167.734375 76.839844 " clip-rule="nonzero"/></clipPath><clipPath id="a78dbf677c"><path d="M 0.0585938 0.117188 L 224.703125 0.117188 L 224.703125 224.878906 L 0.0585938 224.878906 Z M 0.0585938 0.117188 " clip-rule="nonzero"/></clipPath><clipPath id="7130519cf8"><path d="M 87.160156 108.605469 L 172.421875 108.605469 L 172.421875 193.863281 L 87.160156 193.863281 Z M 87.160156 108.605469 " clip-rule="nonzero"/></clipPath><clipPath id="0a3fa2104a"><path d="M 129.792969 108.605469 C 106.25 108.605469 87.160156 127.691406 87.160156 151.234375 C 87.160156 174.773438 106.25 193.863281 129.792969 193.863281 C 153.335938 193.863281 172.421875 174.773438 172.421875 151.234375 C 172.421875 127.691406 153.335938 108.605469 129.792969 108.605469 Z M 129.792969 108.605469 " clip-rule="nonzero"/></clipPath><clipPath id="3b93ab5408"><path d="M 129.792969 108.605469 C 106.25 108.605469 87.160156 127.691406 87.160156 151.234375 C 87.160156 174.773438 106.25 193.863281 129.792969 193.863281 C 153.335938 193.863281 172.421875 174.773438 172.421875 151.234375 C 172.421875 127.691406 153.335938 108.605469 129.792969 108.605469 Z M 129.792969 108.605469 " clip-rule="nonzero"/></clipPath><clipPath id="eb26a7d072"><path d="M 56.628906 148.3125 L 156.789062 148.3125 L 156.789062 217.238281 L 56.628906 217.238281 Z M 56.628906 148.3125 " clip-rule="nonzero"/></clipPath><clipPath id="b1f0ab544c"><path d="M 106.675781 148.3125 C 79.035156 148.3125 56.628906 163.742188 56.628906 182.773438 C 56.628906 201.808594 79.035156 217.238281 106.675781 217.238281 C 134.316406 217.238281 156.722656 201.808594 156.722656 182.773438 C 156.722656 163.742188 134.316406 148.3125 106.675781 148.3125 Z M 106.675781 148.3125 " clip-rule="nonzero"/></clipPath><clipPath id="5465d9e8ab"><path d="M 106.675781 148.3125 C 79.035156 148.3125 56.628906 163.742188 56.628906 182.773438 C 56.628906 201.808594 79.035156 217.238281 106.675781 217.238281 C 134.316406 217.238281 156.722656 201.808594 156.722656 182.773438 C 156.722656 163.742188 134.316406 148.3125 106.675781 148.3125 Z M 106.675781 148.3125 " clip-rule="nonzero"/></clipPath><clipPath id="86af137c32"><path d="M 96.007812 132 L 224.703125 132 L 224.703125 224.878906 L 96.007812 224.878906 Z M 96.007812 132 " clip-rule="nonzero"/></clipPath><clipPath id="75e6496871"><path d="M 7.054688 7.054688 L 218.941406 7.054688 L 218.941406 218.941406 L 7.054688 218.941406 Z M 7.054688 7.054688 " clip-rule="nonzero"/></clipPath><clipPath id="d7b5be37c7"><path d="M -20.144531 207.277344 L 17.707031 -20.351562 L 245.332031 17.5 L 207.480469 245.128906 Z M -20.144531 207.277344 " clip-rule="nonzero"/></clipPath><clipPath id="32730723a0"><path d="M -20.144531 207.277344 L 17.707031 -20.351562 L 245.332031 17.5 L 207.480469 245.128906 Z M -20.144531 207.277344 " clip-rule="nonzero"/></clipPath><clipPath id="fd3fa0eee3"><path d="M 22.535156 97.007812 L 29 97.007812 L 29 113 L 22.535156 113 Z M 22.535156 97.007812 " clip-rule="nonzero"/></clipPath><clipPath id="c4dbc31002"><path d="M 71.023438 81.304688 L 78 81.304688 L 78 113 L 71.023438 113 Z M 71.023438 81.304688 " clip-rule="nonzero"/></clipPath><clipPath id="9a5c06c380"><path d="M 70.023438 81.304688 L 78 81.304688 L 78 113 L 70.023438 113 Z M 70.023438 81.304688 " clip-rule="nonzero"/></clipPath><clipPath id="e59a158211"><path d="M 77.019531 112 L 84 112 L 84 143.492188 L 77.019531 143.492188 Z M 77.019531 112 " clip-rule="nonzero"/></clipPath><clipPath id="4619e731aa"><path d="M 77 112 L 84 112 L 84 143.492188 L 77 143.492188 Z M 77 112 " clip-rule="nonzero"/></clipPath><clipPath id="82c28ae385"><path d="M 89.011719 112 L 95.207031 112 L 95.207031 119.996094 L 89.011719 119.996094 Z M 89.011719 112 " clip-rule="nonzero"/></clipPath><clipPath id="0816d93cc7"><path d="M 89.011719 112 L 95.207031 112 L 95.207031 120.996094 L 89.011719 120.996094 Z M 89.011719 112 " clip-rule="nonzero"/></clipPath></defs><g clip-path="url(#5e8498a560)"><g clip-path="url(#4bdcf45cb2)"><g clip-path="url(#caeec6ffed)"><path fill="#ffffff" d="M 125.105469 76.839844 L 210.367188 76.839844 L 210.367188 162.097656 L 125.105469 162.097656 Z M 125.105469 76.839844 " fill-opacity="1" fill-rule="nonzero"/></g></g></g><g clip-path="url(#a78dbf677c)"><path stroke-linecap="butt" transform="matrix(-0.594185, 0.456338, -0.456338, -0.594185, 212.822564, 168.049446)" fill="none" stroke-linejoin="miter" d="M 22.235959 59.596609 C 48.013275 46.799239 73.796618 46.799756 99.571367 59.600079 " stroke="#ffffff" stroke-width="100" stroke-opacity="1" stroke-miterlimit="4"/></g><g clip-path="url(#7130519cf8)"><g clip-path="url(#0a3fa2104a)"><g clip-path="url(#3b93ab5408)"><path fill="#ffffff" d="M 87.160156 108.605469 L 172.421875 108.605469 L 172.421875 193.863281 L 87.160156 193.863281 Z M 87.160156 108.605469 " fill-opacity="1" fill-rule="nonzero"/></g></g></g><g clip-path="url(#eb26a7d072)"><g clip-path="url(#b1f0ab544c)"><g clip-path="url(#5465d9e8ab)"><path fill="#ffffff" d="M 56.628906 148.3125 L 156.789062 148.3125 L 156.789062 217.238281 L 56.628906 217.238281 Z M 56.628906 148.3125 " fill-opacity="1" fill-rule="nonzero"/></g></g></g><path stroke-linecap="butt" transform="matrix(-0.594185, 0.456338, -0.456338, -0.594185, 112.434881, 141.156141)" fill="none" stroke-linejoin="miter" d="M 1.778462 13.600147 C 27.555781 0.802777 53.339127 0.803294 79.117053 13.599484 " stroke="#ffffff" stroke-width="8" stroke-opacity="1" stroke-miterlimit="4"/><path stroke-linecap="butt" transform="matrix(-0.594185, 0.456338, -0.456338, -0.594185, 190.477546, 166.908737)" fill="none" stroke-linejoin="miter" d="M 0.219457 10.099668 C 26.004086 -2.698662 51.780121 -2.697185 77.562183 10.10218 " stroke="#ffffff" stroke-width="1" stroke-opacity="1" stroke-miterlimit="4"/><g clip-path="url(#86af137c32)"><path stroke-linecap="butt" transform="matrix(-0.618313, 0.423071, -0.423071, -0.618313, 218.001405, 169.610269)" fill="none" stroke-linejoin="miter" d="M 1.389884 25.957483 C 48.254643 -5.316206 96.128975 -5.315644 145.015824 25.954866 " stroke="#ffffff" stroke-width="5" stroke-opacity="1" stroke-miterlimit="4"/></g><g clip-path="url(#75e6496871)"><g clip-path="url(#d7b5be37c7)"><g clip-path="url(#32730723a0)"><path fill="#ff5757" d="M 51.5 27.257812 C 4.167969 61.085938 -6.773438 126.882812 27.0625 174.21875 C 56.394531 215.246094 109.726562 228.871094 154.246094 209.75 C 145.441406 211.941406 136.175781 211.476562 127.683594 208.226562 C 127.683594 208.226562 127.386719 205.636719 127.582031 201.550781 C 114.222656 201.03125 94.886719 200.175781 94.476562 199.605469 C 93.847656 198.726562 89.601562 169.84375 89.601562 169.84375 L 60.917969 167.746094 L 92.660156 165.441406 L 99.214844 194.445312 L 128.359375 194.527344 C 129.628906 186.933594 132.722656 177.261719 139.984375 168.398438 C 139.984375 168.398438 135.054688 166.316406 133.171875 161.414062 C 129.183594 161.046875 125.554688 160.132812 121.894531 158.773438 C 117.082031 156.929688 112.585938 154.246094 108.945312 150.714844 C 105.355469 147.171875 102.261719 143.171875 100.316406 138.667969 C 99.113281 136.546875 98.574219 134.121094 97.691406 131.894531 C 97.035156 129.582031 96.589844 127.214844 96.039062 124.90625 C 96.941406 127.125 97.730469 129.367188 98.699219 131.507812 C 99.902344 133.554688 100.738281 135.765625 102.1875 137.601562 C 104.664062 141.5625 108.082031 144.742188 111.671875 147.359375 C 115.320312 149.960938 119.503906 151.628906 123.769531 152.5625 C 126.800781 153.234375 130.128906 153.46875 133.152344 153.324219 C 133.789062 151.253906 134.871094 148.964844 136.671875 146.394531 C 139.683594 145.519531 142.195312 145.242188 144.367188 145.3125 C 145.484375 142.496094 146.332031 139.273438 146.675781 136.1875 C 147.179688 131.847656 146.953125 127.347656 145.671875 123.058594 C 144.359375 118.808594 142.453125 114.542969 139.507812 110.929688 C 138.238281 108.953125 136.421875 107.449219 134.871094 105.648438 C 133.15625 104.039062 131.292969 102.566406 129.492188 101.003906 C 131.488281 102.265625 133.589844 103.449219 135.570312 104.820312 C 137.382812 106.375 139.507812 107.667969 141.121094 109.496094 C 144.757812 112.796875 147.539062 117.015625 149.730469 121.5625 C 151.898438 126.144531 152.976562 131.269531 153.164062 136.421875 C 153.265625 140.320312 152.957031 144.054688 152.011719 147.945312 C 156.042969 151.316406 156.417969 156.652344 156.417969 156.652344 C 167.15625 152.652344 177.300781 152.851562 184.902344 154.101562 L 194.257812 126.503906 L 168.933594 110.917969 L 181.390625 81.628906 L 174.089844 109.449219 C 174.089844 109.449219 200.039062 122.816406 200.671875 123.691406 C 201.082031 124.265625 195.628906 142.839844 191.796875 155.648438 C 195.730469 156.785156 198.082031 157.902344 198.082031 157.902344 C 198.40625 166.988281 195.855469 175.90625 190.925781 183.523438 C 223.429688 147.59375 227.792969 92.71875 198.464844 51.691406 C 164.632812 4.363281 98.835938 -6.582031 51.5 27.257812 " fill-opacity="1" fill-rule="nonzero"/></g></g></g><g clip-path="url(#fd3fa0eee3)"><path stroke-linecap="butt" transform="matrix(0.0072825, 0, 0, 0.0072825, 22.57125, 76.085503)" fill-opacity="1" fill="#ffffff" fill-rule="evenodd" stroke-linejoin="miter" d="M 416.64496 2901.920425 C 646.219157 2901.920425 832.88229 3089.656334 832.88229 3319.230532 L 832.88229 4999.735116 L -0.128759 4999.735116 L -0.128759 3319.230532 C -0.128759 3089.656334 187.60715 2901.920425 416.64496 2901.920425 Z M 416.64496 2901.920425 " stroke="#000000" stroke-width="6.94" stroke-opacity="1" stroke-miterlimit="2.613"/></g><path stroke-linecap="butt" transform="matrix(0.0072825, 0, 0, 0.0072825, 22.571248, 76.085493)" fill-opacity="1" fill="#ffffff" fill-rule="evenodd" stroke-linejoin="miter" d="M 2083.203711 1224.0991 C 2312.777909 1224.0991 2499.97743 1411.835009 2499.97743 1640.336431 L 2499.97743 5000.272822 L 1666.96638 5000.272822 L 1666.96638 1640.336431 C 1666.96638 1411.835009 1854.165901 1224.0991 2083.203711 1224.0991 Z M 2083.203711 1224.0991 " stroke="#000000" stroke-width="6.94" stroke-opacity="1" stroke-miterlimit="2.613"/><path stroke-linecap="butt" transform="matrix(0.0072825, 0, 0, 0.0072825, 22.571248, 76.085493)" fill-opacity="1" fill="#ffffff" fill-rule="evenodd" stroke-linejoin="miter" d="M 3750.298587 3137.396212 C 3978.800008 3137.396212 4166.535918 3325.132121 4166.535918 3553.633542 L 4166.535918 5000.272822 L 3333.524868 5000.272822 L 3333.524868 3553.633542 C 3333.524868 3325.132121 3520.724389 3137.396212 3750.298587 3137.396212 Z M 3750.298587 3137.396212 " stroke="#000000" stroke-width="6.94" stroke-opacity="1" stroke-miterlimit="2.613"/><path stroke-linecap="butt" transform="matrix(0.0072825, 0, 0, 0.0072825, 22.571248, 76.085493)" fill-opacity="1" fill="#ffffff" fill-rule="evenodd" stroke-linejoin="miter" d="M 5416.857075 1953.050817 C 5645.894884 1953.050817 5833.094406 2140.786727 5833.094406 2369.824536 L 5833.094406 4999.736434 L 5000.083356 4999.736434 L 5000.083356 2369.824536 C 5000.083356 2140.786727 5187.282877 1953.050817 5416.857075 1953.050817 Z M 5416.857075 1953.050817 " stroke="#000000" stroke-width="6.94" stroke-opacity="1" stroke-miterlimit="2.613"/><g clip-path="url(#c4dbc31002)"><path fill="#ffffff" d="M 74.15625 81.332031 C 75.824219 81.332031 77.191406 82.699219 77.191406 84.367188 L 77.191406 112.496094 L 71.121094 112.496094 L 71.121094 84.367188 C 71.121094 82.699219 72.484375 81.332031 74.15625 81.332031 Z M 74.15625 81.332031 " fill-opacity="1" fill-rule="evenodd"/></g><g clip-path="url(#9a5c06c380)"><path stroke-linecap="butt" transform="matrix(0.0072825, 0, 0, 0.0072825, 22.57125, 76.085503)" fill="none" stroke-linejoin="miter" d="M 7083.415299 720.429157 C 7312.453109 720.429157 7500.189018 908.165066 7500.189018 1137.202876 L 7500.189018 4999.735116 L 6666.64158 4999.735116 L 6666.64158 1137.202876 C 6666.64158 908.165066 6853.841101 720.429157 7083.415299 720.429157 Z M 7083.415299 720.429157 " stroke="#000000" stroke-width="6.94" stroke-opacity="1" stroke-miterlimit="2.613"/></g><path stroke-linecap="butt" transform="matrix(0.0072825, 0, 0, 0.0072825, 22.571248, 76.085493)" fill-opacity="1" fill="#ffffff" fill-rule="evenodd" stroke-linejoin="miter" d="M 8749.974051 3987.035299 C 8979.01186 3987.035299 9166.74777 4174.771209 9166.74777 4404.345406 L 9166.74777 5000.272822 L 8333.200332 5000.272822 L 8333.200332 4404.345406 C 8333.200332 4174.771209 8520.936241 3987.035299 8749.974051 3987.035299 Z M 8749.974051 3987.035299 " stroke="#000000" stroke-width="6.94" stroke-opacity="1" stroke-miterlimit="2.613"/><path stroke-linecap="butt" transform="matrix(0.0072825, 0, 0, 0.0072825, 22.571248, 76.085493)" fill-opacity="1" fill="#ffffff" fill-rule="evenodd" stroke-linejoin="miter" d="M 1250.192661 7098.087513 C 1479.230471 7098.087513 1666.96638 6910.351604 1666.96638 6680.777406 L 1666.96638 4999.736434 L 832.882554 4999.736434 L 832.882554 6680.777406 C 832.882554 6910.351604 1020.618463 7098.087513 1250.192661 7098.087513 Z M 1250.192661 7098.087513 " stroke="#000000" stroke-width="6.94" stroke-opacity="1" stroke-miterlimit="2.613"/><path stroke-linecap="butt" transform="matrix(0.0072825, 0, 0, 0.0072825, 22.571248, 76.085493)" fill-opacity="1" fill="#ffffff" fill-rule="evenodd" stroke-linejoin="miter" d="M 2916.214761 8775.910156 C 3145.788959 8775.910156 3333.524868 8588.174246 3333.524868 8359.672825 L 3333.524868 4999.736434 L 2499.97743 4999.736434 L 2499.97743 8359.672825 C 2499.97743 8588.174246 2687.713339 8775.910156 2916.214761 8775.910156 Z M 2916.214761 8775.910156 " stroke="#000000" stroke-width="6.94" stroke-opacity="1" stroke-miterlimit="2.613"/><path stroke-linecap="butt" transform="matrix(0.0072825, 0, 0, 0.0072825, 22.571248, 76.085493)" fill-opacity="1" fill="#ffffff" fill-rule="evenodd" stroke-linejoin="miter" d="M 4583.309637 6862.613044 C 4812.347446 6862.613044 5000.083356 6674.877134 5000.083356 6446.375713 L 5000.083356 4999.736434 L 4166.535918 4999.736434 L 4166.535918 6446.375713 C 4166.535918 6674.877134 4354.271827 6862.613044 4583.309637 6862.613044 Z M 4583.309637 6862.613044 " stroke="#000000" stroke-width="6.94" stroke-opacity="1" stroke-miterlimit="2.613"/><path stroke-linecap="butt" transform="matrix(0.0072825, 0, 0, 0.0072825, 22.571248, 76.085493)" fill-opacity="1" fill="#ffffff" fill-rule="evenodd" stroke-linejoin="miter" d="M 6249.868125 8046.958439 C 6479.442323 8046.958439 6666.641844 7859.222529 6666.641844 7630.18472 L 6666.641844 4999.736434 L 5833.094406 4999.736434 L 5833.094406 7630.18472 C 5833.094406 7859.222529 6020.830315 8046.958439 6249.868125 8046.958439 Z M 6249.868125 8046.958439 " stroke="#000000" stroke-width="6.94" stroke-opacity="1" stroke-miterlimit="2.613"/><g clip-path="url(#e59a158211)"><path fill="#ffffff" d="M 80.222656 143.664062 C 81.894531 143.664062 83.257812 142.296875 83.257812 140.628906 L 83.257812 112.496094 L 77.191406 112.496094 L 77.191406 140.628906 C 77.191406 142.296875 78.558594 143.664062 80.222656 143.664062 Z M 80.222656 143.664062 " fill-opacity="1" fill-rule="evenodd"/></g><g clip-path="url(#4619e731aa)"><path stroke-linecap="butt" transform="matrix(0.0072825, 0, 0, 0.0072825, 22.57125, 76.085503)" fill="none" stroke-linejoin="miter" d="M 7916.426349 9279.577464 C 8146.000547 9279.577464 8333.200068 9091.841554 8333.200068 8862.803745 L 8333.200068 4999.735116 L 7500.189018 4999.735116 L 7500.189018 8862.803745 C 7500.189018 9091.841554 7687.924928 9279.577464 7916.426349 9279.577464 Z M 7916.426349 9279.577464 " stroke="#000000" stroke-width="6.94" stroke-opacity="1" stroke-miterlimit="2.613"/></g><g clip-path="url(#82c28ae385)"><path fill="#ffffff" d="M 92.363281 119.875 C 94.03125 119.875 95.394531 118.507812 95.394531 116.835938 L 95.394531 112.496094 L 89.328125 112.496094 L 89.328125 116.835938 C 89.328125 118.507812 90.691406 119.875 92.363281 119.875 Z M 92.363281 119.875 " fill-opacity="1" fill-rule="evenodd"/></g><g clip-path="url(#0816d93cc7)"><path stroke-linecap="butt" transform="matrix(0.0072825, 0, 0, 0.0072825, 22.57125, 76.085503)" fill="none" stroke-linejoin="miter" d="M 9583.521225 6012.972639 C 9812.559035 6012.972639 9999.758556 5825.23673 9999.758556 5595.662532 L 9999.758556 4999.735116 L 9166.747506 4999.735116 L 9166.747506 5595.662532 C 9166.747506 5825.23673 9353.947027 6012.972639 9583.521225 6012.972639 Z M 9583.521225 6012.972639 " stroke="#000000" stroke-width="6.94" stroke-opacity="1" stroke-miterlimit="2.613"/></g></svg>